<svg width="16" height="10" viewBox="0 0 16 10" fill="none" xmlns="http://www.w3.org/2000/svg">
<path fill-rule="evenodd" clip-rule="evenodd" d="M5.31666 0.807488C5.37487 0.865545 5.42105 0.934514 5.45255 1.01045C5.48406 1.08638 5.50028 1.16778 5.50028 1.24999C5.50028 1.3322 5.48406 1.4136 5.45255 1.48953C5.42105 1.56546 5.37487 1.63443 5.31666 1.69249L2.00791 4.99999L5.31666 8.30749C5.37477 8.3656 5.42087 8.43458 5.45232 8.51051C5.48377 8.58643 5.49995 8.66781 5.49995 8.74999C5.49995 8.83217 5.48377 8.91354 5.45232 8.98947C5.42087 9.06539 5.37477 9.13438 5.31666 9.19249C5.25855 9.2506 5.18957 9.29669 5.11364 9.32814C5.03772 9.35959 4.95634 9.37578 4.87416 9.37578C4.79198 9.37578 4.71061 9.35959 4.63468 9.32814C4.55876 9.29669 4.48977 9.2506 4.43166 9.19249L0.681664 5.44249C0.62346 5.38443 0.577282 5.31546 0.545774 5.23953C0.514265 5.1636 0.498047 5.0822 0.498047 4.99999C0.498047 4.91778 0.514265 4.83638 0.545774 4.76045C0.577282 4.68451 0.62346 4.61554 0.681664 4.55749L4.43166 0.807488C4.48972 0.749284 4.55869 0.703105 4.63462 0.671597C4.71055 0.640089 4.79195 0.623871 4.87416 0.623871C4.95637 0.623871 5.03777 0.640089 5.11371 0.671597C5.18964 0.703105 5.25861 0.749284 5.31666 0.807488Z" fill="white"/>
<path fill-rule="evenodd" clip-rule="evenodd" d="M1.125 5C1.125 4.83424 1.19085 4.67527 1.30806 4.55806C1.42527 4.44085 1.58424 4.375 1.75 4.375H14.875C15.0408 4.375 15.1997 4.44085 15.3169 4.55806C15.4342 4.67527 15.5 4.83424 15.5 5C15.5 5.16576 15.4342 5.32473 15.3169 5.44194C15.1997 5.55915 15.0408 5.625 14.875 5.625H1.75C1.58424 5.625 1.42527 5.55915 1.30806 5.44194C1.19085 5.32473 1.125 5.16576 1.125 5Z" fill="white"/>
</svg>
